<svg viewBox="0 0 512 512" xmlns="http://www.w3.org/2000/svg" xmlns:xlink="http://www.w3.org/1999/xlink"><style>:root&gt;svg{display:none}:root&gt;svg:target{display:block}</style><svg viewBox="0 0 477.867 477.867" id="email" xmlns="http://www.w3.org/2000/svg"><path d="M460.8 68.267H17.067C7.641 68.267 0 75.908 0 85.333v307.2c0 9.426 7.641 17.067 17.067 17.067H460.8c9.426 0 17.067-7.641 17.067-17.067v-307.2c0-9.425-7.641-17.066-17.067-17.066zM432.811 102.4L238.933 251.529 45.056 102.4h387.755zm10.922 273.067h-409.6V137.062L228.54 286.6a17.065 17.065 0 0020.787 0l194.406-149.538v238.405z"/></svg><svg viewBox="0 0 24 24" id="facebook" xmlns="http://www.w3.org/2000/svg"><path d="M15.997 3.985h2.191V.169C17.81.117 16.51 0 14.996 0c-3.159 0-5.323 1.987-5.323 5.639V9H6.187v4.266h3.486V24h4.274V13.267h3.345l.531-4.266h-3.877V6.062c.001-1.233.333-2.077 2.051-2.077z"/></svg><svg viewBox="0 0 511 511.9" id="instagram" xmlns="http://www.w3.org/2000/svg"><path d="M510.95 150.5c-1.2-27.2-5.598-45.898-11.9-62.102-6.5-17.199-16.5-32.597-29.6-45.398-12.802-13-28.302-23.102-45.302-29.5-16.296-6.3-34.898-10.7-62.097-11.898C334.648.3 325.949 0 256.449 0s-78.199.3-105.5 1.5c-27.199 1.2-45.898 5.602-62.097 11.898-17.204 6.5-32.602 16.5-45.403 29.602-13 12.8-23.097 28.3-29.5 45.3-6.3 16.302-10.699 34.9-11.898 62.098C.75 177.801.449 186.5.449 256s.301 78.2 1.5 105.5c1.2 27.2 5.602 45.898 11.903 62.102 6.5 17.199 16.597 32.597 29.597 45.398 12.801 13 28.301 23.102 45.301 29.5 16.3 6.3 34.898 10.7 62.102 11.898 27.296 1.204 36 1.5 105.5 1.5s78.199-.296 105.5-1.5c27.199-1.199 45.898-5.597 62.097-11.898a130.934 130.934 0 0074.903-74.898c6.296-16.301 10.699-34.903 11.898-62.102 1.2-27.3 1.5-36 1.5-105.5s-.102-78.2-1.3-105.5zm-46.098 209c-1.102 25-5.301 38.5-8.801 47.5-8.602 22.3-26.301 40-48.602 48.602-9 3.5-22.597 7.699-47.5 8.796-27 1.204-35.097 1.5-103.398 1.5s-76.5-.296-103.403-1.5c-25-1.097-38.5-5.296-47.5-8.796C94.551 451.5 84.45 445 76.25 436.5c-8.5-8.3-15-18.3-19.102-29.398-3.5-9-7.699-22.602-8.796-47.5-1.204-27-1.5-35.102-1.5-103.403s.296-76.5 1.5-103.398c1.097-25 5.296-38.5 8.796-47.5C61.25 94.199 67.75 84.1 76.352 75.898c8.296-8.5 18.296-15 29.398-19.097 9-3.5 22.602-7.7 47.5-8.801 27-1.2 35.102-1.5 103.398-1.5 68.403 0 76.5.3 103.403 1.5 25 1.102 38.5 5.3 47.5 8.8 11.097 4.098 21.199 10.598 29.398 19.098 8.5 8.301 15 18.301 19.102 29.403 3.5 9 7.699 22.597 8.8 47.5 1.2 27 1.5 35.097 1.5 103.398s-.3 76.301-1.5 103.301zm0 0"/><path d="M256.45 124.5c-72.598 0-131.5 58.898-131.5 131.5s58.902 131.5 131.5 131.5c72.6 0 131.5-58.898 131.5-131.5s-58.9-131.5-131.5-131.5zm0 216.8c-47.098 0-85.302-38.198-85.302-85.3s38.204-85.3 85.301-85.3c47.102 0 85.301 38.198 85.301 85.3s-38.2 85.3-85.3 85.3zm167.402-222c0 16.954-13.747 30.7-30.704 30.7-16.953 0-30.699-13.746-30.699-30.7 0-16.956 13.746-30.698 30.7-30.698 16.956 0 30.703 13.742 30.703 30.699zm0 0"/></svg><svg viewBox="0 0 512 512" id="pin" xmlns="http://www.w3.org/2000/svg"><path d="M256.001 512c-11.176 0-21.184-5.796-26.77-15.505a18.625 18.625 0 01-.173-.308L102.096 263.801C71.79 208.33 72.659 142.489 104.421 87.677 135.494 34.053 190.686 1.292 252.06.04c2.622-.054 5.258-.054 7.878 0 61.375 1.252 116.567 34.013 147.641 87.637 31.762 54.812 32.631 120.652 2.325 176.124L282.942 496.187c-.057.103-.114.206-.173.308-5.585 9.708-15.592 15.505-26.768 15.505zM256 32c-1.099 0-2.195.011-3.289.033-50.099 1.022-95.185 27.821-120.604 71.688-26.107 45.055-26.829 99.162-1.93 144.736L256 478.757l125.822-230.299c24.899-45.575 24.178-99.682-1.931-144.737-25.419-43.866-70.505-70.666-120.604-71.688A163.135 163.135 0 00256 32z"/><path d="M256 232c-39.701 0-72-32.299-72-72s32.299-72 72-72 72 32.299 72 72-32.298 72-72 72zm0-112c-22.056 0-40 17.944-40 40s17.944 40 40 40 40-17.944 40-40-17.944-40-40-40z"/></svg><svg viewBox="0 0 503.604 503.604" id="smartphone" xmlns="http://www.w3.org/2000/svg"><path d="M337.324 0H167.192c-28.924 0-53.5 23.584-53.5 52.5v398.664c0 28.916 24.056 52.44 52.98 52.44l170.412-.184c28.92 0 52.58-23.528 52.58-52.448l.248-398.5C389.908 23.452 366.364 0 337.324 0zM227.68 31.476h49.36c4.336 0 7.868 3.52 7.868 7.868 0 4.348-3.532 7.868-7.868 7.868h-49.36a7.865 7.865 0 01-7.868-7.868 7.865 7.865 0 017.868-7.868zm-29.66 2.504c2.916-2.912 8.224-2.952 11.136 0a7.973 7.973 0 012.324 5.588c0 2.048-.864 4.088-2.324 5.548-1.452 1.46-3.504 2.32-5.548 2.32-2.084 0-4.088-.86-5.588-2.32-1.452-1.456-2.28-3.5-2.28-5.548-.004-2.088.828-4.132 2.28-5.588zm52.752 454.028c-12.984 0-23.544-10.568-23.544-23.548 0-12.984 10.56-23.548 23.544-23.548s23.544 10.564 23.544 23.548c0 12.98-10.564 23.548-23.544 23.548zm114.716-63.1H141.232V74.756h224.256v350.152z"/></svg><svg viewBox="0 0 24 24" id="vk" xmlns="http://www.w3.org/2000/svg"><path d="M19.915 13.028c-.388-.49-.277-.708 0-1.146.005-.005 3.208-4.431 3.538-5.932l.002-.001c.164-.547 0-.949-.793-.949h-2.624c-.668 0-.976.345-1.141.731 0 0-1.336 3.198-3.226 5.271-.61.599-.892.791-1.225.791-.164 0-.419-.192-.419-.739V5.949c0-.656-.187-.949-.74-.949H9.161c-.419 0-.668.306-.668.591 0 .622.945.765 1.043 2.515v3.797c0 .832-.151.985-.486.985-.892 0-3.057-3.211-4.34-6.886-.259-.713-.512-1.001-1.185-1.001H.9c-.749 0-.9.345-.9.731 0 .682.892 4.073 4.148 8.553C6.318 17.343 9.374 19 12.154 19c1.671 0 1.875-.368 1.875-1.001 0-2.922-.151-3.198.686-3.198.388 0 1.056.192 2.616 1.667C19.114 18.217 19.407 19 20.405 19h2.624c.748 0 1.127-.368.909-1.094-.499-1.527-3.871-4.668-4.023-4.878z"/></svg></svg>